<svg width="30" height="30" viewBox="0 0 30 30" fill="none" xmlns="http://www.w3.org/2000/svg">
<g clip-path="url(#clip0_2213_121)">
<path d="M15 3.5C14.6203 3.5 14.2453 3.56562 13.8891 3.69219L0.740614 8.44062C0.295302 8.60469 -1.09092e-05 9.02656 -1.09092e-05 9.5C-1.09092e-05 9.97344 0.295302 10.3953 0.740614 10.5594L3.45468 11.5391C2.68593 12.7484 2.24999 14.1781 2.24999 15.6828V17C2.24999 18.3312 1.74374 19.7047 1.20468 20.7875C0.899989 21.3969 0.553114 21.9969 0.149989 22.55C-1.09076e-05 22.7516 -0.0421984 23.0141 0.0421766 23.2531C0.126552 23.4922 0.323427 23.6703 0.567177 23.7313L3.56718 24.4813C3.76405 24.5328 3.97499 24.4953 4.14843 24.3875C4.32186 24.2797 4.44374 24.1016 4.48124 23.9C4.88436 21.8938 4.6828 20.0938 4.3828 18.8047C4.2328 18.1391 4.03124 17.4594 3.74999 16.8359V15.6828C3.74999 14.2672 4.22811 12.9312 5.0578 11.8625C5.66249 11.1359 6.4453 10.55 7.36405 10.1891L14.7234 7.29688C15.1078 7.14687 15.5437 7.33438 15.6937 7.71875C15.8437 8.10312 15.6562 8.53906 15.2719 8.68906L7.91249 11.5812C7.33124 11.8109 6.8203 12.1625 6.40311 12.5938L13.8844 15.2938C14.2406 15.4203 14.6156 15.4859 14.9953 15.4859C15.375 15.4859 15.75 15.4203 16.1062 15.2938L29.2594 10.5594C29.7047 10.4 30 9.97344 30 9.5C30 9.02656 29.7047 8.60469 29.2594 8.44062L16.1109 3.69219C15.7547 3.56562 15.3797 3.5 15 3.5ZM5.99999 21.125C5.99999 22.7797 10.0312 24.5 15 24.5C19.9687 24.5 24 22.7797 24 21.125L23.2828 14.3094L16.6172 16.7188C16.0969 16.9062 15.5484 17 15 17C14.4516 17 13.8984 16.9062 13.3828 16.7188L6.71718 14.3094L5.99999 21.125Z" fill="#2563EB"/>
</g>
<defs>
<clipPath id="clip0_2213_121">
<path d="M0 2H30V26H0V2Z" fill="white"/>
</clipPath>
</defs>
</svg>
