<svg width="30" height="30" viewBox="0 0 30 30" fill="none" xmlns="http://www.w3.org/2000/svg">
<path d="M0 0H30V30H0V0Z" stroke="#E5E7EB"/>
<g clip-path="url(#clip0_2208_3031)">
<path d="M8.5 3C6.01562 3 4 5.01562 4 7.5V22.5C4 24.9844 6.01562 27 8.5 27H22H23.5C24.3297 27 25 26.3297 25 25.5C25 24.6703 24.3297 24 23.5 24V21C24.3297 21 25 20.3297 25 19.5V4.5C25 3.67031 24.3297 3 23.5 3H22H8.5ZM8.5 21H20.5V24H8.5C7.67031 24 7 23.3297 7 22.5C7 21.6703 7.67031 21 8.5 21ZM10 9.75C10 9.3375 10.3375 9 10.75 9H19.75C20.1625 9 20.5 9.3375 20.5 9.75C20.5 10.1625 20.1625 10.5 19.75 10.5H10.75C10.3375 10.5 10 10.1625 10 9.75ZM10.75 12H19.75C20.1625 12 20.5 12.3375 20.5 12.75C20.5 13.1625 20.1625 13.5 19.75 13.5H10.75C10.3375 13.5 10 13.1625 10 12.75C10 12.3375 10.3375 12 10.75 12Z" fill="#2563EB"/>
</g>
<defs>
<clipPath id="clip0_2208_3031">
<path d="M4 3H25V27H4V3Z" fill="white"/>
</clipPath>
</defs>
</svg>
