<svg width="30" height="30" viewBox="0 0 30 30" fill="none" xmlns="http://www.w3.org/2000/svg">
<path d="M0 0H30V30H0V0Z" stroke="#E5E7EB"/>
<g clip-path="url(#clip0_2208_3028)">
<path d="M15 3.5C14.6203 3.5 14.2453 3.56562 13.8891 3.69219L0.740622 8.44062C0.295309 8.60469 -3.27983e-06 9.02656 -3.27983e-06 9.5C-3.27983e-06 9.97344 0.295309 10.3953 0.740622 10.5594L3.45468 11.5391C2.68593 12.7484 2.25 14.1781 2.25 15.6828V17C2.25 18.3313 1.74375 19.7047 1.20468 20.7875C0.899997 21.3969 0.553122 21.9969 0.149997 22.55C-3.27826e-06 22.7516 -0.0421908 23.0141 0.0421842 23.2531C0.126559 23.4922 0.323434 23.6703 0.567184 23.7313L3.56718 24.4813C3.76406 24.5328 3.975 24.4953 4.14843 24.3875C4.32187 24.2797 4.44375 24.1016 4.48125 23.9C4.88437 21.8938 4.68281 20.0938 4.38281 18.8047C4.23281 18.1391 4.03125 17.4594 3.75 16.8359V15.6828C3.75 14.2672 4.22812 12.9312 5.05781 11.8625C5.6625 11.1359 6.44531 10.55 7.36406 10.1891L14.7234 7.29688C15.1078 7.14687 15.5437 7.33437 15.6937 7.71875C15.8437 8.10313 15.6562 8.53906 15.2719 8.68906L7.9125 11.5812C7.33125 11.8109 6.82031 12.1625 6.40312 12.5938L13.8844 15.2938C14.2406 15.4203 14.6156 15.4859 14.9953 15.4859C15.375 15.4859 15.75 15.4203 16.1062 15.2938L29.2594 10.5594C29.7047 10.4 30 9.97344 30 9.5C30 9.02656 29.7047 8.60469 29.2594 8.44062L16.1109 3.69219C15.7547 3.56562 15.3797 3.5 15 3.5ZM6 21.125C6 22.7797 10.0312 24.5 15 24.5C19.9687 24.5 24 22.7797 24 21.125L23.2828 14.3094L16.6172 16.7188C16.0969 16.9062 15.5484 17 15 17C14.4516 17 13.8984 16.9062 13.3828 16.7188L6.71718 14.3094L6 21.125Z" fill="#2563EB"/>
</g>
<defs>
<clipPath id="clip0_2208_3028">
<path d="M0 2H30V26H0V2Z" fill="white"/>
</clipPath>
</defs>
</svg>
